<svg xmlns="http://www.w3.org/2000/svg" xmlns:xlink="http://www.w3.org/1999/xlink" viewBox="0 0 301.82 47.92"><defs><style>.cls-1{fill:url(#Gradiente_sem_nome_2);}.cls-2{fill:#201c50;}.cls-3{fill:#a1af96;}.cls-10,.cls-11,.cls-12,.cls-13,.cls-14,.cls-15,.cls-16,.cls-17,.cls-18,.cls-19,.cls-20,.cls-21,.cls-22,.cls-23,.cls-24,.cls-25,.cls-26,.cls-27,.cls-28,.cls-29,.cls-3,.cls-30,.cls-31,.cls-32,.cls-33,.cls-34,.cls-35,.cls-36,.cls-37,.cls-38,.cls-39,.cls-4,.cls-40,.cls-41,.cls-42,.cls-43,.cls-44,.cls-45,.cls-5,.cls-6,.cls-7,.cls-8,.cls-9{fill-rule:evenodd;}.cls-4{fill:#479ba4;}.cls-5{fill:#4c9da6;}.cls-6{fill:#509ea7;}.cls-7{fill:#55a0a9;}.cls-8{fill:#5aa2ab;}.cls-9{fill:#5fa4ac;}.cls-10{fill:#62a5ad;}.cls-11{fill:#67a8b0;}.cls-12{fill:#6ba9b1;}.cls-13{fill:#70abb3;}.cls-14{fill:#73acb4;}.cls-15{fill:#78afb6;}.cls-16{fill:#7cb1b8;}.cls-17{fill:#80b3b9;}.cls-18{fill:#80b4bb;}.cls-19{fill:#80b7bd;}.cls-20{fill:#83b9bf;}.cls-21{fill:#86bac0;}.cls-22{fill:#8abcc2;}.cls-23{fill:#8fbfc5;}.cls-24{fill:#93c1c6;}.cls-25{fill:#97c2c8;}.cls-26{fill:#9bc4c9;}.cls-27{fill:#a0c7cc;}.cls-28{fill:#a4c9ce;}.cls-29{fill:#a8cbcf;}.cls-30{fill:#accdd1;}.cls-31{fill:#b1d0d3;}.cls-32{fill:#b4d2d5;}.cls-33{fill:#b9d4d7;}.cls-34{fill:#bdd6d8;}.cls-35{fill:#c2d9db;}.cls-36{fill:#c6dbdd;}.cls-37{fill:#cadddf;}.cls-38{fill:#cfdfe0;}.cls-39{fill:#d4e2e4;}.cls-40{fill:#d8e5e5;}.cls-41{fill:#dde7e7;}.cls-42{fill:#e2eaea;}.cls-43{fill:#e9eff1;}.cls-44{fill:#eef2ff;}.cls-45{fill:#fff;}.cls-46{mask:url(#mask);}</style><linearGradient id="Gradiente_sem_nome_2" x1="-205.02" y1="317.07" x2="-206.22" y2="320.2" gradientTransform="translate(214.01 -299.27)" gradientUnits="userSpaceOnUse"><stop offset="0" stop-color="#fff"></stop><stop offset="0.08" stop-color="#f6f6f6"></stop><stop offset="0.22" stop-color="#dedede"></stop><stop offset="0.4" stop-color="#b6b6b6"></stop><stop offset="0.6" stop-color="#7f7f7f"></stop><stop offset="0.83" stop-color="#3a3a3a"></stop><stop offset="1"></stop></linearGradient><mask id="mask" x="4.03" y="18.19" width="7.9" height="4.47" maskUnits="userSpaceOnUse"><rect class="cls-1" x="4.03" y="18.19" width="7.9" height="4.47"></rect></mask></defs><g id="Camada_2" data-name="Camada 2"><g id="Camada_4" data-name="Camada 4"><path class="cls-2" d="M6.76,17.11A6.76,6.76,0,1,1,0,23.86a6.76,6.76,0,0,1,6.76-6.75"></path><path class="cls-3" d="M4.88,18a6.17,6.17,0,1,0,7.76,4,6.17,6.17,0,0,0-7.76-4"></path><path class="cls-4" d="M4.53,29.64a6.19,6.19,0,1,0-3.55-8,6.19,6.19,0,0,0,3.55,8"></path><path class="cls-5" d="M4.54,29.61A6.06,6.06,0,1,0,1,21.76a6.09,6.09,0,0,0,3.5,7.85"></path><path class="cls-6" d="M4.55,29.58A5.93,5.93,0,1,0,8.82,18.51,5.93,5.93,0,1,0,4.55,29.58"></path><path class="cls-7" d="M4.56,29.55A5.81,5.81,0,1,0,8.74,18.72,5.81,5.81,0,1,0,4.56,29.55"></path><path class="cls-8" d="M4.57,29.52A5.68,5.68,0,1,0,8.66,18.93,5.68,5.68,0,1,0,4.57,29.52"></path><path class="cls-9" d="M4.59,29.49a5.63,5.63,0,0,0,7.33-3.12,5.64,5.64,0,0,0-3.34-7.24,5.55,5.55,0,1,0-4,10.36"></path><path class="cls-10" d="M4.6,29.46a5.52,5.52,0,0,0,7.19-3A5.53,5.53,0,0,0,8.5,19.34,5.43,5.43,0,1,0,4.6,29.46"></path><path class="cls-11" d="M4.61,29.43a5.41,5.41,0,0,0,7.06-2.95,5.42,5.42,0,0,0-3.25-6.93A5.41,5.41,0,0,0,1.36,22.5a5.41,5.41,0,0,0,3.25,6.93"></path><path class="cls-12" d="M4.62,29.41a5.31,5.31,0,0,0,6.93-2.87,5.31,5.31,0,0,0-3.21-6.78,5.29,5.29,0,0,0-6.92,2.87,5.3,5.3,0,0,0,3.2,6.78"></path><path class="cls-13" d="M4.63,29.38a5.19,5.19,0,0,0,6.79-2.79A5.18,5.18,0,0,0,8.26,20a5.19,5.19,0,0,0-6.79,2.78,5.2,5.2,0,0,0,3.16,6.63"></path><path class="cls-14" d="M4.64,29.35a5.09,5.09,0,0,0,6.66-2.7,5.08,5.08,0,0,0-3.12-6.47,5.08,5.08,0,0,0-6.66,2.7,5.09,5.09,0,0,0,3.12,6.47"></path><path class="cls-15" d="M4.65,29.32a5,5,0,0,0,6.53-2.62A5,5,0,0,0,8.1,20.39,5,5,0,0,0,1.58,23a5,5,0,0,0,3.07,6.32"></path><path class="cls-16" d="M4.66,29.29a4.87,4.87,0,0,0,6.39-2.53A4.86,4.86,0,0,0,8,20.6a4.86,4.86,0,0,0-6.39,2.52,4.87,4.87,0,0,0,3,6.17"></path><path class="cls-17" d="M4.68,29.26a4.75,4.75,0,0,0,6.25-2.44,4.77,4.77,0,0,0-3-6,4.77,4.77,0,0,0-6.26,2.45,4.76,4.76,0,0,0,3,6"></path><path class="cls-18" d="M4.69,29.23a4.65,4.65,0,0,0,6.12-2.36A4.66,4.66,0,0,0,7.86,21a4.65,4.65,0,0,0-6.12,2.36,4.64,4.64,0,0,0,3,5.86"></path><path class="cls-19" d="M4.7,29.2a4.54,4.54,0,0,0,6-2.27,4.55,4.55,0,0,0-2.9-5.71,4.54,4.54,0,0,0-6,2.28A4.54,4.54,0,0,0,4.7,29.2"></path><path class="cls-20" d="M4.71,29.17A4.43,4.43,0,0,0,10.56,27,4.43,4.43,0,0,0,7.7,21.43a4.43,4.43,0,0,0-5.85,2.19,4.42,4.42,0,0,0,2.86,5.55"></path><path class="cls-21" d="M4.72,29.14A4.33,4.33,0,0,0,10.44,27a4.33,4.33,0,0,0-2.82-5.4,4.33,4.33,0,0,0-5.72,2.1,4.32,4.32,0,0,0,2.82,5.4"></path><path class="cls-22" d="M4.73,29.11a4.2,4.2,0,0,0,5.58-2c.78-2-.47-4.35-2.77-5.24a4.23,4.23,0,0,0-5.59,2,4.21,4.21,0,0,0,2.78,5.24"></path><path class="cls-23" d="M4.74,29.09c2.26.87,4.7,0,5.45-1.94s-.47-4.22-2.73-5.09S2.76,22.05,2,24s.47,4.22,2.73,5.1"></path><path class="cls-24" d="M4.75,29.06c2.21.85,4.59,0,5.32-1.85s-.48-4.09-2.7-4.94-4.58,0-5.31,1.85.48,4.08,2.69,4.94"></path><path class="cls-25" d="M4.77,29c2.16.83,4.48,0,5.17-1.77s-.48-4-2.65-4.79-4.48,0-5.17,1.77.48,4,2.65,4.79"></path><path class="cls-26" d="M4.78,29c2.11.81,4.37.06,5-1.68s-.49-3.82-2.61-4.64-4.37-.06-5,1.68S2.66,28.18,4.78,29"></path><path class="cls-27" d="M4.79,29c2.06.8,4.26.08,4.91-1.6s-.5-3.68-2.57-4.48-4.26-.08-4.91,1.6.5,3.68,2.57,4.48"></path><path class="cls-28" d="M4.8,28.94c2,.78,4.15.1,4.77-1.51s-.5-3.55-2.52-4.33S2.9,23,2.28,24.61s.5,3.55,2.52,4.33"></path><path class="cls-29" d="M4.81,28.91c2,.76,4,.12,4.64-1.43S8.94,24.07,7,23.31s-4-.12-4.64,1.43.51,3.41,2.48,4.17"></path><path class="cls-30" d="M4.82,28.88c1.92.74,3.94.14,4.51-1.34s-.52-3.28-2.44-4S3,23.38,2.38,24.86s.52,3.28,2.44,4"></path><path class="cls-31" d="M4.83,28.85c1.87.72,3.83.16,4.37-1.25s-.52-3.15-2.39-3.87S3,23.57,2.44,25,3,28.13,4.83,28.85"></path><path class="cls-32" d="M4.84,28.82c1.82.71,3.72.18,4.24-1.17s-.53-3-2.35-3.71S3,23.76,2.49,25.11s.53,3,2.35,3.71"></path><path class="cls-33" d="M4.85,28.8c1.78.68,3.61.19,4.11-1.09s-.54-2.88-2.31-3.57S3,24,2.55,25.23s.53,2.88,2.3,3.57"></path><path class="cls-34" d="M4.87,28.77c1.72.66,3.49.21,4-1S8.29,25,6.57,24.35s-3.5-.21-4,1,.54,2.74,2.27,3.41"></path><path class="cls-35" d="M4.88,28.74c1.67.64,3.39.23,3.83-.92s-.55-2.61-2.22-3.26-3.39-.23-3.84.92.55,2.61,2.23,3.26"></path><path class="cls-36" d="M4.89,28.71c1.62.62,3.28.25,3.7-.84S8,25.4,6.41,24.77s-3.28-.25-3.7.83.55,2.48,2.18,3.11"></path><path class="cls-37" d="M4.9,28.68c1.57.61,3.17.27,3.57-.75S7.9,25.59,6.33,25s-3.17-.27-3.57.75.56,2.34,2.14,2.95"></path><path class="cls-38" d="M4.91,28.65c1.53.59,3.06.29,3.43-.66s-.57-2.21-2.09-2.8-3.07-.29-3.43.66.56,2.21,2.09,2.8"></path><path class="cls-39" d="M4.92,28.62c1.48.57,3,.31,3.3-.58S7.64,26,6.17,25.4s-3-.31-3.3.58.57,2.07,2.05,2.64"></path><path class="cls-40" d="M4.93,28.59c1.43.55,2.85.33,3.17-.49s-.59-1.94-2-2.49-2.85-.33-3.17.49.58,1.94,2,2.49"></path><path class="cls-41" d="M4.94,28.56c1.38.54,2.74.35,3-.41s-.59-1.8-2-2.34-2.74-.34-3,.41.59,1.81,2,2.34"></path><path class="cls-42" d="M5,28.53c1.33.52,2.62.37,2.89-.32S7.25,26.54,5.92,26,3.3,25.66,3,26.35,3.63,28,5,28.53"></path><path class="cls-43" d="M5,28.51c1.28.49,2.51.38,2.76-.25s-.6-1.53-1.89-2-2.51-.38-2.75.24.6,1.54,1.88,2"></path><path class="cls-44" d="M5,28.48c1.23.47,2.41.4,2.62-.16s-.6-1.4-1.84-1.88-2.4-.41-2.62.16S3.75,28,5,28.48"></path><path class="cls-45" d="M5,28.45c1.18.45,2.3.42,2.49-.07s-.61-1.27-1.8-1.73-2.3-.43-2.49.07S3.81,28,5,28.45"></path><g class="cls-46"><path class="cls-45" d="M7.79,21.2c2.14.82,3.62,2.15,4.06,1s-.95-2.71-3.09-3.54-4.23-.58-4.67.55,1.56,1.14,3.7,2"></path></g><path class="cls-2" d="M10.17,41A5.52,5.52,0,0,1,18,33.13a12.9,12.9,0,0,0,22-9.17A5.54,5.54,0,0,1,51,24,23.94,23.94,0,0,1,10.17,41"></path><path class="cls-2" d="M58.52,18.43a5.54,5.54,0,1,1,0,11.07H27a5.54,5.54,0,0,1,0-11.07Z"></path><path class="cls-2" d="M39,3.23a5.52,5.52,0,1,1-5.54,9.56,12.43,12.43,0,0,0-3.1-1.28,12.81,12.81,0,0,0-12.45,3.34A5.53,5.53,0,0,1,10.09,7,23.93,23.93,0,0,1,39,3.23"></path><path class="cls-2" d="M200,42.38a5.54,5.54,0,1,1-11.07,0V5.57a5.54,5.54,0,0,1,11.07,0Z"></path><path class="cls-2" d="M215.89,42.38a5.54,5.54,0,1,1-11.07,0V18.54a5.54,5.54,0,0,1,11.07,0Z"></path><path class="cls-2" d="M241.9,18.54a5.54,5.54,0,1,1-11.07,0,7.47,7.47,0,0,0-14.94,0,5.54,5.54,0,1,1-11.07,0,18.54,18.54,0,1,1,37.08,0"></path><path class="cls-2" d="M241.9,42.38a5.54,5.54,0,1,1-11.07,0V18.54a5.54,5.54,0,0,1,11.07,0Z"></path><path class="cls-2" d="M267.91,42.38a5.54,5.54,0,1,1-11.07,0V18.54a5.54,5.54,0,0,1,11.07,0Z"></path><path class="cls-2" d="M267.91,18.54a5.54,5.54,0,1,1-11.07,0,7.47,7.47,0,1,0-14.94,0,5.54,5.54,0,1,1-11.07,0,18.54,18.54,0,1,1,37.08,0"></path><path class="cls-2" d="M93.49,33.17a5.54,5.54,0,1,1-11.07,0V5.54a5.54,5.54,0,0,1,11.07,0Z"></path><path class="cls-2" d="M82.42,33.17a5.54,5.54,0,0,1,11.07,0,3.67,3.67,0,0,0,3.68,3.68,5.54,5.54,0,0,1,0,11.07A14.75,14.75,0,0,1,82.42,33.17"></path><path class="cls-2" d="M159,42.39a5.54,5.54,0,0,1-11.07,0V16.05a5.54,5.54,0,1,1,11.07,0Z"></path><path class="cls-2" d="M168.81,32.08a5.53,5.53,0,0,1,0-11.06,5,5,0,1,0,0-9.94,5.54,5.54,0,0,1,0-11.07,16,16,0,1,1,0,32.07"></path><path class="cls-2" d="M168.81,0a5.52,5.52,0,1,1,0,11h-4.88a5.51,5.51,0,0,1,0-11Z"></path><path class="cls-2" d="M163.93,0a5.54,5.54,0,0,1,0,11.07,5,5,0,0,0-5,5,5.54,5.54,0,0,1-11.07,0,16,16,0,0,1,16-16"></path><path class="cls-2" d="M164.21,29.6a5.52,5.52,0,0,1,9.21-6.1l10.5,15.84a5.52,5.52,0,0,1-9.21,6.1Z"></path><path class="cls-2" d="M117.88,42.39a5.54,5.54,0,0,1-11.07,0V18.55a5.54,5.54,0,1,1,11.07,0Z"></path><path class="cls-2" d="M117.78,18.55a5.44,5.44,0,0,1-10.87,0,18.43,18.43,0,1,1,23.2,17.8,5.42,5.42,0,0,1-2.8-10.48,7.53,7.53,0,0,0,5.61-7.32,7.57,7.57,0,1,0-15.14,0"></path><path class="cls-2" d="M286.76,0a5.54,5.54,0,1,1,0,11.07,3.68,3.68,0,0,0-2.6,6.28,3.71,3.71,0,0,0,2.6,1.08,5.53,5.53,0,1,1,0,11.06,14.75,14.75,0,1,1,0-29.49"></path><path class="cls-2" d="M295.33,0a5.52,5.52,0,0,1,0,11h-9.69a5.51,5.51,0,1,1,0-11Z"></path><path class="cls-2" d="M286.76,18.43a5.53,5.53,0,1,1,0,11.06,3.69,3.69,0,0,0-3.68,3.68,3.69,3.69,0,0,0,3.68,3.68,5.54,5.54,0,1,1,0,11.07,14.75,14.75,0,1,1,0-29.49"></path><path class="cls-2" d="M296.3,36.86a5.52,5.52,0,1,1,0,11H285.64a5.51,5.51,0,1,1,0-11Z"></path><path class="cls-2" d="M293.1,18.41a5.52,5.52,0,0,1,0,11h-7.46a5.51,5.51,0,1,1,0-11Z"></path><path class="cls-2" d="M64.37,0a5.54,5.54,0,1,1,0,11.07,3.69,3.69,0,0,0-3.68,3.68,3.69,3.69,0,0,0,3.68,3.68,5.53,5.53,0,1,1,0,11.06A14.74,14.74,0,0,1,54,4.32,14.67,14.67,0,0,1,64.37,0"></path><path class="cls-2" d="M72.94,0a5.52,5.52,0,0,1,0,11H63.25a5.51,5.51,0,1,1,0-11Z"></path><path class="cls-2" d="M64.37,18.43a5.53,5.53,0,1,1,0,11.06,3.68,3.68,0,0,0-2.6,6.28,3.67,3.67,0,0,0,2.6,1.08,5.54,5.54,0,1,1,0,11.07,14.75,14.75,0,0,1,0-29.49"></path><path class="cls-2" d="M73.91,36.86a5.52,5.52,0,1,1,0,11H63.25a5.51,5.51,0,1,1,0-11Z"></path><path class="cls-2" d="M70.71,18.41a5.52,5.52,0,0,1,0,11H63.25a5.51,5.51,0,1,1,0-11Z"></path><path class="cls-45" d="M9.11,19c.74.35,1.11.83.81,1.05A2.33,2.33,0,0,1,8,19.82c-.74-.36-1.11-.83-.81-1.06A2.3,2.3,0,0,1,9.11,19"></path></g></g></svg>